<?xml version="1.0" encoding="UTF-8" standalone="no"?><!DOCTYPE svg PUBLIC "-//W3C//DTD SVG 1.1//EN" "http://www.w3.org/Graphics/SVG/1.1/DTD/svg11.dtd"><svg width="100%" height="100%" viewBox="0 0 256 425" version="1.1" xmlns="http://www.w3.org/2000/svg" xmlns:xlink="http://www.w3.org/1999/xlink" xml:space="preserve" xmlns:serif="http://www.serif.com/" style="fill-rule:evenodd;clip-rule:evenodd;stroke-linejoin:round;stroke-miterlimit:2;"><g><path d="M65.699,330.301l-65.591,32.083l127.292,62.001l127.639,-62.195l-65.758,-32.539l-61.929,30.754l-61.653,-30.104Z" style="fill:#177dc7;fill-rule:nonzero;"/><path d="M65.699,330.301l-65.591,32.083l127.292,62.001l127.639,-62.195l-65.758,-32.539l-61.929,30.754l-61.653,-30.104Z" style="fill:#ee6c4d;fill-rule:nonzero;"/><path d="M57.602,98.175l-0,-0.021l69.929,-34.106l69.935,34.106l57.538,-35.955l-127.519,-62.199l-127.485,62.18l0,0.055l57.554,35.964l0.048,-0.024Z" style="fill:#293241;fill-rule:nonzero;"/><path d="M0.156,298.428l62.915,-30.803l64.714,32.042l-127.629,62.795l0,-64.034Z" style="fill:#293241;fill-rule:nonzero;"/><path d="M196.678,98.167l0,102.011l-70.342,34.424l64.686,32.339l62.979,-30.797l0,-173.953l-57.323,35.976Z" style="fill:#293241;fill-rule:nonzero;"/><path d="M255.004,298.216l-197.415,-98.25l-0,-101.784l-57.589,-35.952l-0,173.702l255.004,126.321l-0,-64.037Z" style="fill:#ee6c4d;fill-rule:nonzero;"/></g></svg>