<svg viewBox="0 0 256 425" xmlns="http://www.w3.org/2000/svg" xml:space="preserve" style="fill-rule:evenodd;clip-rule:evenodd;stroke-linejoin:round;stroke-miterlimit:2"><path d="M65.699 330.301.108 362.384 127.4 424.385l127.639-62.195-65.758-32.539-61.929 30.754-61.653-30.104Z" style="fill:#177dc7;fill-rule:nonzero"/><path d="M65.699 330.301.108 362.384 127.4 424.385l127.639-62.195-65.758-32.539-61.929 30.754-61.653-30.104Z" style="fill:#ee6c4d;fill-rule:nonzero"/><path d="M57.602 98.175v-.021l69.929-34.106 69.935 34.106 57.538-35.955L127.485 0 0 62.18v.055l57.554 35.964.048-.024ZM.156 298.428l62.915-30.803 64.714 32.042L.156 362.462v-64.034Z" style="fill:#293241;fill-rule:nonzero"/><path d="M196.678 98.167v102.011l-70.342 34.424 64.686 32.339 62.979-30.797V62.191l-57.323 35.976Z" style="fill:#293241;fill-rule:nonzero"/><path d="m255.004 298.216-197.415-98.25V98.182L0 62.23v173.702l255.004 126.321v-64.037Z" style="fill:#ee6c4d;fill-rule:nonzero"/></svg>