<svg viewBox="0 0 400 400" xmlns="http://www.w3.org/2000/svg" xml:space="preserve" style="fill-rule:evenodd;clip-rule:evenodd;stroke-linejoin:round;stroke-miterlimit:2"><circle cx="12.502" cy="12.502" r="2.499" style="fill:#87868d"/><circle cx="37.501" cy="12.502" r="2.499" style="fill:#f5f4f5"/><circle cx="62.499" cy="12.502" r="2.499" style="fill:#e8e7e9"/><circle cx="87.498" cy="12.502" r="2.499" style="fill:#5b5963"/><circle cx="112.502" cy="12.502" r="2.499" style="fill:#b3b2b7"/><circle cx="137.501" cy="12.502" r="2.499" style="fill:#e4fbfc"/><circle cx="162.499" cy="12.502" r="2.499" style="fill:#e2fbfc"/><circle cx="187.498" cy="12.502" r="2.499" style="fill:#e7fcfd"/><circle cx="212.502" cy="12.502" r="2.499" style="fill:#9a999f"/><circle cx="237.501" cy="12.502" r="2.499" style="fill:#e8fcfd"/><circle cx="262.499" cy="12.502" r="2.499" style="fill:#74737a"/><circle cx="287.498" cy="12.502" r="2.499" style="fill:#fff"/><circle cx="312.502" cy="12.502" r="2.499" style="fill:#f2fdfe"/><circle cx="337.501" cy="12.502" r="2.499" style="fill:#f2fdfe"/><circle cx="362.499" cy="12.502" r="2.499" style="fill:#f1fdfe"/><circle cx="387.498" cy="12.502" r="2.499" style="fill:#413f4a"/><circle cx="12.502" cy="37.501" r="2.499" style="fill:#edfdfd"/><circle cx="37.501" cy="37.501" r="2.499" style="fill:#f1fdfe"/><circle cx="62.499" cy="37.501" r="2.499" style="fill:#6d6c74"/><circle cx="87.498" cy="37.501" r="2.499" style="fill:#5d5b65"/><circle cx="112.502" cy="37.501" r="2.499" style="fill:#f2fdfe"/><circle cx="137.501" cy="37.501" r="2.499" style="fill:#f6fefe"/><circle cx="162.499" cy="37.501" r="2.499" style="fill:#a3a2a8"/><circle cx="187.498" cy="37.501" r="2.499" style="fill:#fbfeff"/><circle cx="212.502" cy="37.501" r="2.499" style="fill:#f9fefe"/><circle cx="237.501" cy="37.501" r="2.499" style="fill:#3e3c47"/><circle cx="262.499" cy="37.501" r="2.499" style="fill:#eefdfd"/><circle cx="287.498" cy="37.501" r="2.499" style="fill:#ececed"/><circle cx="312.502" cy="37.501" r="2.499" style="fill:#818087"/><circle cx="337.501" cy="37.501" r="2.499" style="fill:#f7fefe"/><circle cx="362.499" cy="37.501" r="2.499" style="fill:#e6fcfd"/><circle cx="387.498" cy="37.501" r="2.499" style="fill:#d2d2d4"/><circle cx="12.502" cy="62.499" r="2.499" style="fill:#b7b6ba"/><circle cx="37.501" cy="62.499" r="2.499" style="fill:#e6e6e7"/><circle cx="62.499" cy="62.499" r="2.499" style="fill:#f1f1f2"/><circle cx="87.498" cy="62.499" r="2.499" style="fill:#4c4a55"/><circle cx="112.502" cy="62.499" r="2.499" style="fill:#a5a4a9"/><circle cx="137.501" cy="62.499" r="2.499" style="fill:#f2fdfe"/><circle cx="162.499" cy="62.499" r="2.499" style="fill:#f9fefe"/><circle cx="187.498" cy="62.499" r="2.499" style="fill:#e2fbfc"/><circle cx="212.502" cy="62.499" r="2.499" style="fill:#fcfcfd"/><circle cx="237.501" cy="62.499" r="2.499" style="fill:#e2fbfc"/><circle cx="262.499" cy="62.499" r="2.499" style="fill:#b7b6ba"/><circle cx="287.498" cy="62.499" r="2.499" style="fill:#e1fbfc"/><circle cx="312.502" cy="62.499" r="2.499" style="fill:#6a6971"/><circle cx="337.501" cy="62.499" r="2.499" style="fill:#e0e0e1"/><circle cx="362.499" cy="62.499" r="2.499" style="fill:#d9d9db"/><circle cx="387.498" cy="62.499" r="2.499" style="fill:#45434d"/><circle cx="12.502" cy="87.498" r="2.499" style="fill:#e2e2e4"/><circle cx="37.501" cy="87.498" r="2.499" style="fill:#e5fcfc"/><circle cx="62.499" cy="87.498" r="2.499" style="fill:#f2fdfe"/><circle cx="87.498" cy="87.498" r="2.499" style="fill:#fdffff"/><circle cx="112.502" cy="87.498" r="2.499" style="fill:#f7fefe"/><circle cx="137.501" cy="87.498" r="2.499" style="fill:#57555f"/><circle cx="162.499" cy="87.498" r="2.499" style="fill:#b4b3b7"/><circle cx="187.498" cy="87.498" r="2.499" style="fill:#e4fcfc"/><circle cx="212.502" cy="87.498" r="2.499" style="fill:#f9fefe"/><circle cx="237.501" cy="87.498" r="2.499" style="fill:#d2d1d4"/><circle cx="262.499" cy="87.498" r="2.499" style="fill:#696770"/><circle cx="287.498" cy="87.498" r="2.499" style="fill:#e7fcfd"/><circle cx="312.502" cy="87.498" r="2.499" style="fill:#f4f4f5"/><circle cx="337.501" cy="87.498" r="2.499" style="fill:#fdffff"/><circle cx="362.499" cy="87.498" r="2.499" style="fill:#e9fcfd"/><circle cx="387.498" cy="87.498" r="2.499" style="fill:#fefefe"/><circle cx="12.502" cy="112.502" r="2.499" style="fill:#eaeaeb"/><circle cx="37.501" cy="112.502" r="2.499" style="fill:#ecfdfd"/><circle cx="62.499" cy="112.502" r="2.499" style="fill:#f5f5f6"/><circle cx="87.498" cy="112.502" r="2.499" style="fill:#bfbec2"/><circle cx="112.502" cy="112.502" r="2.499" style="fill:#bdbdc0"/><circle cx="137.501" cy="112.502" r="2.499" style="fill:#f5fefe"/><circle cx="162.499" cy="112.502" r="2.499" style="fill:#e7fcfd"/><circle cx="187.498" cy="112.502" r="2.499" style="fill:#d4d4d6"/><circle cx="212.502" cy="112.502" r="2.499" style="fill:#f1fdfe"/><circle cx="237.501" cy="112.502" r="2.499" style="fill:#ececed"/><circle cx="262.499" cy="112.502" r="2.499" style="fill:#f5fefe"/><circle cx="287.498" cy="112.502" r="2.499" style="fill:#c2c1c5"/><circle cx="312.502" cy="112.502" r="2.499" style="fill:#f7f7f7"/><circle cx="337.501" cy="112.502" r="2.499" style="fill:#f3fdfe"/><circle cx="362.499" cy="112.502" r="2.499" style="fill:#b3b2b6"/><circle cx="387.498" cy="112.502" r="2.499" style="fill:#d2d1d4"/><circle cx="12.502" cy="137.501" r="2.499" style="fill:#e8fcfd"/><circle cx="37.501" cy="137.501" r="2.499" style="fill:#f6f6f7"/><circle cx="62.499" cy="137.501" r="2.499" style="fill:#65636c"/><circle cx="87.498" cy="137.501" r="2.499" style="fill:#eefdfd"/><circle cx="112.502" cy="137.501" r="2.499" style="fill:#88878d"/><circle cx="137.501" cy="137.501" r="2.499" style="fill:#e4fbfc"/><circle cx="162.499" cy="137.501" r="2.499" style="fill:#fdffff"/><circle cx="187.498" cy="137.501" r="2.499" style="fill:#838289"/><circle cx="212.502" cy="137.501" r="2.499" style="fill:#e6fcfd"/><circle cx="237.501" cy="137.501" r="2.499" style="fill:#e8fcfd"/><circle cx="262.499" cy="137.501" r="2.499" style="fill:#e3e2e4"/><circle cx="287.498" cy="137.501" r="2.499" style="fill:#e5fcfd"/><circle cx="312.502" cy="137.501" r="2.499" style="fill:#fcffff"/><circle cx="337.501" cy="137.501" r="2.499" style="fill:#c3c2c6"/><circle cx="362.499" cy="137.501" r="2.499" style="fill:#f6fefe"/><circle cx="387.498" cy="137.501" r="2.499" style="fill:#4d4b55"/><circle cx="12.502" cy="162.499" r="2.499" style="fill:#dcdcde"/><circle cx="37.501" cy="162.499" r="2.499" style="fill:#edfdfd"/><circle cx="62.499" cy="162.499" r="2.499" style="fill:#bab9bd"/><circle cx="87.498" cy="162.499" r="2.499" style="fill:#fbffff"/><circle cx="112.502" cy="162.499" r="2.499" style="fill:#feffff"/><circle cx="137.501" cy="162.499" r="2.499" style="fill:#e9fcfd"/><circle cx="162.499" cy="162.499" r="2.499" style="fill:#828088"/><circle cx="187.498" cy="162.499" r="2.499" style="fill:#e0fbfc"/><circle cx="212.502" cy="162.499" r="2.499" style="fill:#6b6972"/><circle cx="237.501" cy="162.499" r="2.499" style="fill:#c5c5c8"/><circle cx="262.499" cy="162.499" r="2.499" style="fill:#95949a"/><circle cx="287.498" cy="162.499" r="2.499" style="fill:#8f8e95"/><circle cx="312.502" cy="162.499" r="2.499" style="fill:#fcffff"/><circle cx="337.501" cy="162.499" r="2.499" style="fill:#43414c"/><circle cx="362.499" cy="162.499" r="2.499" style="fill:#fbffff"/><circle cx="387.498" cy="162.499" r="2.499" style="fill:#a3a2a7"/><circle cx="12.502" cy="187.498" r="2.499" style="fill:#f7fefe"/><circle cx="37.501" cy="187.498" r="2.499" style="fill:#797880"/><circle cx="62.499" cy="187.498" r="2.499" style="fill:#4f4d57"/><circle cx="87.498" cy="187.498" r="2.499" style="fill:#fafeff"/><circle cx="112.502" cy="187.498" r="2.499" style="fill:#fcffff"/><circle cx="137.501" cy="187.498" r="2.499" style="fill:#e7e7e9"/><circle cx="162.499" cy="187.498" r="2.499" style="fill:#c1c0c4"/><circle cx="187.498" cy="187.498" r="2.499" style="fill:#f9fefe"/><circle cx="212.502" cy="187.498" r="2.499" style="fill:#4b4954"/><circle cx="237.501" cy="187.498" r="2.499" style="fill:#ababaf"/><circle cx="262.499" cy="187.498" r="2.499" style="fill:#f6fefe"/><circle cx="287.498" cy="187.498" r="2.499" style="fill:#f5f5f6"/><circle cx="312.502" cy="187.498" r="2.499" style="fill:#ececed"/><circle cx="337.501" cy="187.498" r="2.499" style="fill:#eafcfd"/><circle cx="362.499" cy="187.498" r="2.499" style="fill:#e3fbfc"/><circle cx="387.498" cy="187.498" r="2.499" style="fill:#8b8a91"/><circle cx="12.502" cy="212.502" r="2.499" style="fill:#88878e"/><circle cx="37.501" cy="212.502" r="2.499" style="fill:#f4fefe"/><circle cx="62.499" cy="212.502" r="2.499" style="fill:#e6fcfd"/><circle cx="87.498" cy="212.502" r="2.499" style="fill:#7e7d84"/><circle cx="112.502" cy="212.502" r="2.499" style="fill:#88878e"/><circle cx="137.501" cy="212.502" r="2.499" style="fill:#c4c3c7"/><circle cx="162.499" cy="212.502" r="2.499" style="fill:#f9fefe"/><circle cx="187.498" cy="212.502" r="2.499" style="fill:#feffff"/><circle cx="212.502" cy="212.502" r="2.499" style="fill:#eefdfd"/><circle cx="237.501" cy="212.502" r="2.499" style="fill:#f4fefe"/><circle cx="262.499" cy="212.502" r="2.499" style="fill:#ccccce"/><circle cx="287.498" cy="212.502" r="2.499" style="fill:#f0fdfe"/><circle cx="312.502" cy="212.502" r="2.499" style="fill:#f7fefe"/><circle cx="337.501" cy="212.502" r="2.499" style="fill:#f6f6f7"/><circle cx="362.499" cy="212.502" r="2.499" style="fill:#514f59"/><circle cx="387.498" cy="212.502" r="2.499" style="fill:#e0fbfc"/><circle cx="12.502" cy="237.501" r="2.499" style="fill:#e7fcfd"/><circle cx="37.501" cy="237.501" r="2.499" style="fill:#f2fdfe"/><circle cx="62.499" cy="237.501" r="2.499" style="fill:#f5fefe"/><circle cx="87.498" cy="237.501" r="2.499" style="fill:#e8fcfd"/><circle cx="112.502" cy="237.501" r="2.499" style="fill:#e5fcfc"/><circle cx="137.501" cy="237.501" r="2.499" style="fill:#f3fdfe"/><circle cx="162.499" cy="237.501" r="2.499" style="fill:#a6a5aa"/><circle cx="187.498" cy="237.501" r="2.499" style="fill:#fafefe"/><circle cx="212.502" cy="237.501" r="2.499" style="fill:#feffff"/><circle cx="237.501" cy="237.501" r="2.499" style="fill:#e4fbfc"/><circle cx="262.499" cy="237.501" r="2.499" style="fill:#b2b1b6"/><circle cx="287.498" cy="237.501" r="2.499" style="fill:#e3fbfc"/><circle cx="312.502" cy="237.501" r="2.499" style="fill:#f2fdfe"/><circle cx="337.501" cy="237.501" r="2.499" style="fill:#5f5e67"/><circle cx="362.499" cy="237.501" r="2.499" style="fill:#f3fdfe"/><circle cx="387.498" cy="237.501" r="2.499" style="fill:#acabaf"/><circle cx="12.502" cy="262.499" r="2.499" style="fill:#ecfdfd"/><circle cx="37.501" cy="262.499" r="2.499" style="fill:#97969c"/><circle cx="62.499" cy="262.499" r="2.499" style="fill:#7e7d84"/><circle cx="87.498" cy="262.499" r="2.499" style="fill:#7a7980"/><circle cx="112.502" cy="262.499" r="2.499" style="fill:#e5fcfd"/><circle cx="137.501" cy="262.499" r="2.499" style="fill:#fcffff"/><circle cx="162.499" cy="262.499" r="2.499" style="fill:#75747c"/><circle cx="187.498" cy="262.499" r="2.499" style="fill:#e4fcfc"/><circle cx="212.502" cy="262.499" r="2.499" style="fill:#e6e6e7"/><circle cx="237.501" cy="262.499" r="2.499" style="fill:#c5c4c8"/><circle cx="262.499" cy="262.499" r="2.499" style="fill:#9a999e"/><circle cx="287.498" cy="262.499" r="2.499" style="fill:#e2fbfc"/><circle cx="312.502" cy="262.499" r="2.499" style="fill:#f9f9f9"/><circle cx="337.501" cy="262.499" r="2.499" style="fill:#c2c1c5"/><circle cx="362.499" cy="262.499" r="2.499" style="fill:#d8d8da"/><circle cx="387.498" cy="262.499" r="2.499" style="fill:#f2fdfe"/><circle cx="12.502" cy="287.498" r="2.499" style="fill:#f0fdfe"/><circle cx="37.501" cy="287.498" r="2.499" style="fill:#bab9bd"/><circle cx="62.499" cy="287.498" r="2.499" style="fill:#43414b"/><circle cx="87.498" cy="287.498" r="2.499" style="fill:#fbfeff"/><circle cx="112.502" cy="287.498" r="2.499" style="fill:#5f5d66"/><circle cx="137.501" cy="287.498" r="2.499" style="fill:#4e4c56"/><circle cx="162.499" cy="287.498" r="2.499" style="fill:#e7fcfd"/><circle cx="187.498" cy="287.498" r="2.499" style="fill:#727078"/><circle cx="212.502" cy="287.498" r="2.499" style="fill:#f6f6f6"/><circle cx="237.501" cy="287.498" r="2.499" style="fill:#fdffff"/><circle cx="262.499" cy="287.498" r="2.499" style="fill:#afaeb3"/><circle cx="287.498" cy="287.498" r="2.499" style="fill:#595760"/><circle cx="312.502" cy="287.498" r="2.499" style="fill:#fafafa"/><circle cx="337.501" cy="287.498" r="2.499" style="fill:#f3fdfe"/><circle cx="362.499" cy="287.498" r="2.499" style="fill:#57555f"/><circle cx="387.498" cy="287.498" r="2.499" style="fill:#f5f5f5"/><circle cx="12.502" cy="312.502" r="2.499" style="fill:#5c5b64"/><circle cx="37.501" cy="312.502" r="2.499" style="fill:#ecfdfd"/><circle cx="62.499" cy="312.502" r="2.499" style="fill:#d5d4d7"/><circle cx="87.498" cy="312.502" r="2.499" style="fill:#c6c5c8"/><circle cx="112.502" cy="312.502" r="2.499" style="fill:#efeff0"/><circle cx="137.501" cy="312.502" r="2.499" style="fill:#55545d"/><circle cx="162.499" cy="312.502" r="2.499" style="fill:#a1a0a6"/><circle cx="187.498" cy="312.502" r="2.499" style="fill:#cdcccf"/><circle cx="212.502" cy="312.502" r="2.499" style="fill:#5b5a63"/><circle cx="237.501" cy="312.502" r="2.499" style="fill:#f9fefe"/><circle cx="262.499" cy="312.502" r="2.499" style="fill:#f6fefe"/><circle cx="287.498" cy="312.502" r="2.499" style="fill:#fafafb"/><circle cx="312.502" cy="312.502" r="2.499" style="fill:#fdffff"/><circle cx="337.501" cy="312.502" r="2.499" style="fill:#616069"/><circle cx="362.499" cy="312.502" r="2.499" style="fill:#f6fefe"/><circle cx="387.498" cy="312.502" r="2.499" style="fill:#e2fbfc"/><circle cx="12.502" cy="337.501" r="2.499" style="fill:#e8fcfd"/><circle cx="37.501" cy="337.501" r="2.499" style="fill:#5d5b64"/><circle cx="62.499" cy="337.501" r="2.499" style="fill:#66656e"/><circle cx="87.498" cy="337.501" r="2.499" style="fill:#f6fefe"/><circle cx="112.502" cy="337.501" r="2.499" style="fill:#e3fbfc"/><circle cx="137.501" cy="337.501" r="2.499" style="fill:#c8c8cb"/><circle cx="162.499" cy="337.501" r="2.499" style="fill:#f6fefe"/><circle cx="187.498" cy="337.501" r="2.499" style="fill:#737179"/><circle cx="212.502" cy="337.501" r="2.499" style="fill:#f6fefe"/><circle cx="237.501" cy="337.501" r="2.499" style="fill:#99989e"/><circle cx="262.499" cy="337.501" r="2.499" style="fill:#f2fdfe"/><circle cx="287.498" cy="337.501" r="2.499" style="fill:#68666f"/><circle cx="312.502" cy="337.501" r="2.499" style="fill:#6a6871"/><circle cx="337.501" cy="337.501" r="2.499" style="fill:#f9fefe"/><circle cx="362.499" cy="337.501" r="2.499" style="fill:#e4fcfc"/><circle cx="387.498" cy="337.501" r="2.499" style="fill:#e5fcfc"/><circle cx="12.502" cy="362.499" r="2.499" style="fill:#f5f5f5"/><circle cx="37.501" cy="362.499" r="2.499" style="fill:#f6fefe"/><circle cx="62.499" cy="362.499" r="2.499" style="fill:#f2fdfe"/><circle cx="87.498" cy="362.499" r="2.499" style="fill:#a8a8ac"/><circle cx="112.502" cy="362.499" r="2.499" style="fill:#939298"/><circle cx="137.501" cy="362.499" r="2.499" style="fill:#e6fcfd"/><circle cx="162.499" cy="362.499" r="2.499" style="fill:#fdfdfd"/><circle cx="187.498" cy="362.499" r="2.499" style="fill:#929197"/><circle cx="212.502" cy="362.499" r="2.499" style="fill:#fcffff"/><circle cx="237.501" cy="362.499" r="2.499" style="fill:#413f49"/><circle cx="262.499" cy="362.499" r="2.499" style="fill:#4f4d57"/><circle cx="287.498" cy="362.499" r="2.499" style="fill:#eefdfd"/><circle cx="312.502" cy="362.499" r="2.499" style="fill:#b3b2b7"/><circle cx="337.501" cy="362.499" r="2.499" style="fill:#5c5a63"/><circle cx="362.499" cy="362.499" r="2.499" style="fill:#9e9da2"/><circle cx="387.498" cy="362.499" r="2.499" style="fill:#e2fbfc"/><circle cx="12.502" cy="387.498" r="2.499" style="fill:#ecfdfd"/><circle cx="37.501" cy="387.498" r="2.499" style="fill:#919096"/><circle cx="62.499" cy="387.498" r="2.499" style="fill:#8c8b92"/><circle cx="87.498" cy="387.498" r="2.499" style="fill:#aaa9ae"/><circle cx="112.502" cy="387.498" r="2.499" style="fill:#f4f4f5"/><circle cx="137.501" cy="387.498" r="2.499" style="fill:#f3fdfe"/><circle cx="162.499" cy="387.498" r="2.499" style="fill:#fafeff"/><circle cx="187.498" cy="387.498" r="2.499" style="fill:#edfdfd"/><circle cx="212.502" cy="387.498" r="2.499" style="fill:#919097"/><circle cx="237.501" cy="387.498" r="2.499" style="fill:#e8fcfd"/><circle cx="262.499" cy="387.498" r="2.499" style="fill:#dbdbdd"/><circle cx="287.498" cy="387.498" r="2.499" style="fill:#828188"/><circle cx="312.502" cy="387.498" r="2.499" style="fill:#efeff0"/><circle cx="337.501" cy="387.498" r="2.499" style="fill:#b9b9bd"/><circle cx="362.499" cy="387.498" r="2.499" style="fill:#76757d"/><circle cx="387.498" cy="387.498" r="2.499" style="fill:#e1fbfc"/></svg>